<?xml version="1.0" encoding="utf-8" ?><svg xmlns="http://www.w3.org/2000/svg" xmlns:xlink="http://www.w3.org/1999/xlink" width="1056" height="992" viewBox="0 0 1056 992"><defs><linearGradient id="gradient_0" gradientUnits="userSpaceOnUse" x1="596.23639" y1="646.7113" x2="644.24548" y2="303.80908"><stop offset="0" stop-color="#2F9CC8"/><stop offset="1" stop-color="#41C4ED"/></linearGradient></defs><path fill="url(#gradient_0)" d="M606.356 325.241L617.296 325.3L740.91 325.426C763.067 325.575 785.224 325.601 807.382 325.502C803.399 334.36 795.427 347.496 790.422 356.182C786.48 363.022 780.415 374.181 776.178 380.531C759.333 381.061 741.285 380.517 724.299 380.506L640.388 380.476C632.943 393.917 625.304 407.249 617.473 420.47C612.13 429.434 606.201 438.537 601.097 447.564L691.536 447.515C705.731 447.499 724.802 446.773 738.415 447.595C728.218 465.792 718.31 484.486 707.828 502.496C662.563 503.432 614.629 502.426 569.128 502.587C564.419 512.413 556.188 525.57 550.471 535.302L517.902 590.528C513.342 598.198 508.995 606.013 504.499 613.709C502.789 616.636 499.008 623.465 496.967 626.029C484.554 625.749 471.866 626.098 459.426 625.986C450.113 625.902 442.613 626.377 433.352 624.853L474.062 554.115C481.277 541.576 491.017 523.371 498.768 511.57C501.142 506.929 505.132 500.561 507.82 495.922L523.826 467.827C551.028 420.12 578.538 372.591 606.356 325.241Z"/><path fill="#6CC9E6" d="M606.356 325.241L617.296 325.3C615.26 330.086 611.622 336.152 609.123 340.818C602.544 353.106 595.302 365.103 588.328 377.174C572.392 404.89 556.217 432.468 539.804 459.905C528.533 478.858 516.741 497.634 506.546 517.153C503.022 514.279 502.258 513.984 498.768 511.57C501.142 506.929 505.132 500.561 507.82 495.922L523.826 467.827C551.028 420.12 578.538 372.591 606.356 325.241Z"/><defs><linearGradient id="gradient_1" gradientUnits="userSpaceOnUse" x1="378.18164" y1="628.96674" x2="340.24078" y2="452.85651"><stop offset="0" stop-color="#2088B7"/><stop offset="1" stop-color="#51C3E7"/></linearGradient></defs><path fill="url(#gradient_1)" d="M294.237 393.981C299.328 395.88 305.497 397.321 310.881 398.308C324.04 400.72 336.203 403.862 348.88 408.162C347.156 422.227 348.242 436.635 347.994 450.798L347.962 508.809C347.958 514.04 348.544 523.223 347.907 528.176C345.819 544.434 354.635 565.463 372.498 569.042C391.184 572.785 415.759 569.854 435.864 570.708C432.083 578.362 426.308 587.91 422.012 595.474L405.589 624.946C369.67 625.066 345.506 626.729 317.667 598.861C297.779 578.953 292.312 557.933 292.321 530.762L292.327 474.983C292.265 450.629 291.029 417.278 294.237 393.981Z"/><path fill="#6CC9E6" d="M294.237 393.981C299.328 395.88 305.497 397.321 310.881 398.308C324.04 400.72 336.203 403.862 348.88 408.162C347.156 422.227 348.242 436.635 347.994 450.798C336.678 452.426 331.698 458.551 321.769 464.49C315.531 468.254 308.803 471.14 301.776 473.065C298.857 473.894 295.31 475.044 292.327 474.983C292.265 450.629 291.029 417.278 294.237 393.981Z"/><defs><linearGradient id="gradient_2" gradientUnits="userSpaceOnUse" x1="445.94611" y1="362.30966" x2="294.35574" y2="369.39029"><stop offset="0" stop-color="#68C8E6"/><stop offset="1" stop-color="#D3EDF3"/></linearGradient></defs><path fill="url(#gradient_2)" d="M294.237 393.981C295.042 391.156 295.865 388.343 296.762 385.553C307.194 353.102 338.332 328.526 372.292 325.723C380.628 325.035 389.612 325.317 398.04 325.331C412.359 325.438 426.678 325.4 440.996 325.218C439.744 326.528 439.145 326.619 439.183 327.985C439.262 330.828 441.342 335.62 441.534 338.146C442.693 353.391 441.652 359.884 447.466 374.692C446.943 376.649 446.262 377.706 446.916 379.257C447.41 379.559 448.252 380.029 448.664 380.379C434.537 380.503 420.409 380.509 406.281 380.398C381.398 380.321 356.628 378.119 348.88 408.162C336.203 403.862 324.04 400.72 310.881 398.308C305.497 397.321 299.328 395.88 294.237 393.981Z"/><defs><linearGradient id="gradient_3" gradientUnits="userSpaceOnUse" x1="567.44434" y1="346.4397" x2="459.54916" y2="362.72427"><stop offset="0" stop-color="#1A87B8"/><stop offset="1" stop-color="#57C4E6"/></linearGradient></defs><path fill="url(#gradient_3)" d="M440.996 325.218C443.572 325.257 448.033 325.183 450.453 325.4L491.711 325.325C521.576 325.338 542.725 323.537 568.648 341.492C559.422 357.525 550.107 373.506 540.702 389.435C524.58 378.313 516.065 380.477 497.141 380.325C483.762 380.218 469.536 380.923 456.242 380.404C453.949 380.532 451.013 380.408 448.664 380.379C448.252 380.029 447.41 379.559 446.916 379.257C446.262 377.706 446.943 376.649 447.466 374.692C441.652 359.884 442.693 353.391 441.534 338.146C441.342 335.62 439.262 330.828 439.183 327.985C439.145 326.619 439.744 326.528 440.996 325.218Z"/><path fill="#6CC9E6" d="M440.996 325.218C443.572 325.257 448.033 325.183 450.453 325.4C450.637 325.533 450.82 325.666 451.003 325.798C453.554 327.197 457.612 324.988 458.623 329.534C460.491 337.931 461.257 346.731 462.606 355.254C463.503 360.918 464.645 366.859 465.587 372.534C465.717 373.314 464.558 376.57 464.246 377.498C461.23 380.677 459.722 377.897 456.242 380.404C453.949 380.532 451.013 380.408 448.664 380.379C448.252 380.029 447.41 379.559 446.916 379.257C446.262 377.706 446.943 376.649 447.466 374.692C441.652 359.884 442.693 353.391 441.534 338.146C441.342 335.62 439.262 330.828 439.183 327.985C439.145 326.619 439.744 326.528 440.996 325.218Z"/><path fill="#2F9FCA" d="M596.796 527.208C601.409 527.034 605.452 527.146 610.047 527.281C609.995 548.638 609.072 567.202 596.671 585.54C582.028 607.192 563.685 618.813 538.472 623.953C535.32 624.488 529.885 624.787 526.539 625.077L562.24 563.945C568.488 553.256 577.163 537.252 584.012 527.417C588.077 527.232 592.684 527.271 596.796 527.208Z"/><defs><linearGradient id="gradient_4" gradientUnits="userSpaceOnUse" x1="432.08398" y1="714.96246" x2="449.2338" y2="618.7478"><stop offset="0" stop-color="#2A97CF"/><stop offset="1" stop-color="#3BBCE7"/></linearGradient></defs><path fill="url(#gradient_4)" d="M384.163 710.346C389.567 701.668 395.597 690.421 400.808 681.357L433.352 624.853C442.613 626.377 450.113 625.902 459.426 625.986C471.866 626.098 484.554 625.749 496.967 626.029C493.795 631.699 487.804 643.982 483.38 647.483C474.884 654.208 462.309 661.504 452.93 667.345C430.234 681.481 407.379 697.284 384.163 710.346Z"/><defs><linearGradient id="gradient_5" gradientUnits="userSpaceOnUse" x1="505.96738" y1="456.89795" x2="445.62216" y2="476.57526"><stop offset="0" stop-color="#33A1CF"/><stop offset="1" stop-color="#87C9E2"/></linearGradient></defs><path fill="url(#gradient_5)" d="M447.802 447.592L507.019 447.531C499.078 462.963 488.368 479.367 480.867 494.247L476.258 502.68C456.332 503.172 436.397 503.187 416.47 502.724C422.147 491.155 432.6 474.112 439.24 462.497C441.821 457.917 444.994 451.946 447.802 447.592Z"/><path fill="#2F9FCA" d="M416.47 502.724C422.147 491.155 432.6 474.112 439.24 462.497C448.256 468.891 457.087 475.543 465.722 482.445C469.397 485.341 477.231 491.915 480.867 494.247L476.258 502.68C456.332 503.172 436.397 503.187 416.47 502.724Z"/></svg>